# xmcd
#
# Track frame offsets:
#	150
#	14574
#	30571
#	50259
#	65959
#	82477
#	97289
#	109777
#	125543
#	142291
#	158141
#	172326
#
# Disc length: 2491 seconds
#
# Revision: 1
# Processed by: cddbd v1.5.2PL0 Copyright (c) Steve Scherf et al.
# Submitted via: audiograbber 1.83.01
#
DISCID=bd09b90c
DTITLE=Chris Lane - Girl Problems
DYEAR=2016
DGENRE=Country
TTITLE0=Fix
TTITLE1=For Her
TTITLE2=Let Me Love You
TTITLE3=Who's It Gonna Be
TTITLE4=Back To Me
TTITLE5=Maybe
TTITLE6=Her Own Kind Of Beautiful
TTITLE7=All The Time
TTITLE8=Circles
TTITLE9=Saturday Night
TTITLE10=All About You
TTITLE11=Girl Problems
EXTD=
EXTT0=
EXTT1=
EXTT2=
EXTT3=
EXTT4=
EXTT5=
EXTT6=
EXTT7=
EXTT8=
EXTT9=
EXTT10=
EXTT11=
PLAYORDER=
